<svg xmlns="http://www.w3.org/2000/svg" xmlns:xlink="http://www.w3.org/1999/xlink"><symbol fill="#60c37a" id="sprite-accept" viewBox="0 0 448 448.554"><title>accept</title><path d="M224.55 0C100.884 0 .278 100.605.278 224.277c0 123.668 100.606 224.278 224.274 224.278 123.664 0 224.27-100.61 224.27-224.278C448.82 100.605 348.214 0 224.55 0zm0 430.27c-113.581 0-205.988-92.415-205.988-205.993 0-113.582 92.407-205.992 205.989-205.992 113.578 0 205.984 92.41 205.984 205.992 0 113.578-92.406 205.993-205.984 205.993zm0 0"/><path d="M340.379 134.848L180.91 294.312l-72.191-72.187c-3.57-3.57-9.356-3.57-12.93 0-3.57 3.57-3.57 9.355 0 12.93l78.656 78.652c1.785 1.785 4.125 2.676 6.465 2.676s4.68-.89 6.465-2.676l165.934-165.93a9.143 9.143 0 00-12.93-12.93zm0 0"/></symbol><use fill="#60c37a" xlink:href="#sprite-accept" width="448" height="448"/><view id="sprite-accept-fragment" viewBox="0 0 448 448"/><symbol id="sprite-add" viewBox="0 0 612 612"><title>add</title><path d="M269.272 310.198c86.177-.005 117.184-86.291 125.301-157.169C404.572 65.715 363.282 0 269.272 0 175.274 0 133.963 65.71 143.97 153.029c8.125 70.878 39.123 157.175 125.302 157.169z"/><path d="M457.707 346.115c2.773 0 5.528.083 8.264.235-4.101-5.85-8.848-11.01-14.403-15.158-16.559-12.359-38.005-16.414-56.964-23.864-9.229-3.625-17.493-7.226-25.251-11.326-26.184 28.715-60.329 43.736-100.091 43.74-39.749 0-73.891-15.021-100.072-43.74-7.758 4.101-16.024 7.701-25.251 11.326-18.959 7.451-40.404 11.505-56.964 23.864-28.638 21.375-36.039 69.46-41.854 102.26-4.799 27.076-8.023 54.707-8.964 82.209-.729 21.303 9.789 24.29 27.611 30.721 22.315 8.048 45.356 14.023 68.552 18.921 44.797 9.46 90.973 16.729 136.95 17.054 22.278-.159 44.601-1.956 66.792-4.833-16.431-23.807-26.068-52.645-26.068-83.695.001-81.451 66.264-147.714 147.713-147.714z"/><path d="M457.707 375.658c-65.262 0-118.171 52.909-118.171 118.171S392.444 612 457.707 612s118.172-52.909 118.172-118.171c-.001-65.263-52.91-118.171-118.172-118.171zm51.7 138.445h-31.425v31.424c0 11.198-9.077 20.276-20.274 20.276-11.198 0-20.276-9.078-20.276-20.276v-31.424h-31.424c-11.198 0-20.276-9.077-20.276-20.276 0-11.198 9.077-20.276 20.276-20.276h31.424v-31.424c0-11.198 9.078-20.276 20.276-20.276s20.274 9.078 20.274 20.276v31.424h31.425c11.198 0 20.276 9.078 20.276 20.276-.001 11.2-9.077 20.276-20.276 20.276z"/></symbol><use xlink:href="#sprite-add" y="448" width="612" height="612"/><view id="sprite-add-fragment" viewBox="0 448 612 612"/><symbol id="sprite-alert" viewBox="0 0 19 19"><title>alert</title><path d="M14.147 9.522a4.41 4.41 0 00-2.454-3.95v7.905a4.422 4.422 0 002.454-3.955zM.898 6.578v5.888h3.926l4.907 4.907V1.67L4.824 6.578H.898z"/><path d="M11.693.916v2.026a6.869 6.869 0 014.907 6.58c0 3.11-2.07 5.736-4.907 6.58v2.026c3.93-.893 6.87-4.401 6.87-8.606s-2.94-7.713-6.87-8.606z"/></symbol><use xlink:href="#sprite-alert" y="1060" width="19" height="19"/><view id="sprite-alert-fragment" viewBox="0 1060 19 19"/><symbol id="sprite-arrow-right" viewBox="0 0 5 10"><title>arrow-right</title><path d="M4.592 5.07L.668 8.994a.356.356 0 11-.505-.504l3.672-3.672L.163 1.146A.356.356 0 11.668.64l3.924 3.924c.14.14.14.365 0 .505z"/></symbol><use xlink:href="#sprite-arrow-right" y="1079" width="5" height="10"/><view id="sprite-arrow-right-fragment" viewBox="0 1079 5 10"/><symbol id="sprite-audio" viewBox="0 0 13 19"><title>audio</title><path d="M11.823 11.907a7.287 7.287 0 00.978-3.208c.044-.733-.12-1.502-.473-2.225-.554-1.137-1.507-1.775-2.428-2.392-.686-.46-1.336-.894-1.794-1.515l-.083-.11c-.271-.365-.577-.778-.626-1.125a.682.682 0 00-.715-.58.673.673 0 00-.628.672v12.024a3.904 3.904 0 00-2.024-.553c-1.86 0-3.374 1.21-3.374 2.699 0 1.488 1.514 2.699 3.374 2.699s3.374-1.21 3.374-2.7V7.73c1.013.387 2.672 1.374 3.128 3.677-.085.126-.166.26-.26.369a.672.672 0 00.06.951.672.672 0 00.952-.06c.18-.206.341-.446.495-.697a.423.423 0 00.044-.062z"/></symbol><use xlink:href="#sprite-audio" y="1089" width="13" height="19"/><view id="sprite-audio-fragment" viewBox="0 1089 13 19"/><symbol id="sprite-block" viewBox="0 0 23 22"><title>block</title><path d="M.689.189h5.817v5.817H.689zm0 7.685h5.817v5.817H.689zm0 7.684h5.817v5.817H.689zM8.937.189h5.817v5.817H8.937zm0 7.685h5.817v5.817H8.937zm0 7.684h5.817v5.817H8.937zM17.184.189h5.817v5.817h-5.817zm0 7.685h5.817v5.817h-5.817zm0 7.684h5.817v5.817h-5.817z"/></symbol><use xlink:href="#sprite-block" y="1108" width="23" height="22"/><view id="sprite-block-fragment" viewBox="0 1108 23 22"/><symbol fill="red" id="sprite-close-a" viewBox="0 0 512 512"><title>close-a</title><path d="M256 0C114.844 0 0 114.844 0 256s114.844 256 256 256 256-114.844 256-256S397.156 0 256 0zm0 490.667C126.604 490.667 21.333 385.396 21.333 256S126.604 21.333 256 21.333 490.667 126.604 490.667 256 385.396 490.667 256 490.667z"/><path d="M359.542 152.458c-4.167-4.167-10.917-4.167-15.083 0L256 240.917l-88.458-88.458c-4.167-4.167-10.917-4.167-15.083 0-4.167 4.167-4.167 10.917 0 15.083L240.917 256l-88.458 88.458c-4.167 4.167-4.167 10.917 0 15.083 2.083 2.083 4.813 3.125 7.542 3.125s5.458-1.042 7.542-3.125L256 271.083l88.458 88.458a10.634 10.634 0 007.542 3.125c2.729 0 5.458-1.042 7.542-3.125 4.167-4.167 4.167-10.917 0-15.083L271.083 256l88.458-88.458c4.167-4.167 4.167-10.917.001-15.084z"/></symbol><use fill="red" xlink:href="#sprite-close-a" y="1130" width="512" height="512"/><view id="sprite-close-a-fragment" viewBox="0 1130 512 512"/><symbol id="sprite-close" viewBox="0 0 47.971 47.971"><title>close</title><path d="M28.228 23.986L47.092 5.122a2.998 2.998 0 000-4.242 2.998 2.998 0 00-4.242 0L23.986 19.744 5.121.88a2.998 2.998 0 00-4.242 0 2.998 2.998 0 000 4.242l18.865 18.864L.879 42.85a2.998 2.998 0 104.242 4.241l18.865-18.864L42.85 47.091c.586.586 1.354.879 2.121.879s1.535-.293 2.121-.879a2.998 2.998 0 000-4.242L28.228 23.986z"/></symbol><use xlink:href="#sprite-close" y="1642" width="47.971" height="47.971"/><view id="sprite-close-fragment" viewBox="0 1642 47.971 47.971"/><symbol id="sprite-down-arrow" viewBox="0 0 129 129"><title>down-arrow</title><path d="M121.3 34.6c-1.6-1.6-4.2-1.6-5.8 0l-51 51.1-51.1-51.1c-1.6-1.6-4.2-1.6-5.8 0-1.6 1.6-1.6 4.2 0 5.8l53.9 53.9c.8.8 1.8 1.2 2.9 1.2 1 0 2.1-.4 2.9-1.2l53.9-53.9c1.7-1.6 1.7-4.2.1-5.8z"/></symbol><use xlink:href="#sprite-down-arrow" y="1689.971" width="129" height="129"/><view id="sprite-down-arrow-fragment" viewBox="0 1689.971 129 129"/><symbol id="sprite-envelope" viewBox="0 0 485.211 485.211"><title>envelope</title><path d="M485.211 363.906c0 10.637-2.992 20.498-7.785 29.174L324.225 221.67l151.54-132.584c5.895 9.355 9.446 20.344 9.446 32.219v242.601zM242.606 252.793l210.863-184.5c-8.653-4.737-18.397-7.642-28.908-7.642H60.651c-10.524 0-20.271 2.905-28.889 7.642l210.844 184.5zm58.787-11.162l-48.809 42.734a15.145 15.145 0 01-9.978 3.729c-3.57 0-7.125-1.242-9.98-3.729l-48.82-42.736L28.667 415.23c9.299 5.834 20.197 9.329 31.983 9.329h363.911c11.784 0 22.687-3.495 31.983-9.329L301.393 241.631zM9.448 89.085C3.554 98.44 0 109.429 0 121.305v242.602c0 10.637 2.978 20.498 7.789 29.174l153.183-171.44L9.448 89.085z"/></symbol><use xlink:href="#sprite-envelope" y="1818.971" width="485.211" height="485.211"/><view id="sprite-envelope-fragment" viewBox="0 1818.971 485.211 485.211"/><symbol id="sprite-fb" viewBox="0 0 9 16"><title>fb</title><path d="M2.46 16h2.93V8.7h2.45l.37-2.84H5.39V4.04c0-.82.23-1.38 1.41-1.38h1.51V.11C8.05.08 7.16 0 6.12 0 3.94 0 2.46 1.33 2.46 3.76v2.1H0V8.7h2.46V16z"/></symbol><use xlink:href="#sprite-fb" y="2304.182" width="9" height="16"/><view id="sprite-fb-fragment" viewBox="0 2304.182 9 16"/><symbol id="sprite-google-place" viewBox="0 0 513.597 513.597"><title>google-place</title><path d="M263.278.107C158.977-3.408 73.323 80.095 73.323 183.602c0 117.469 112.73 202.72 175.915 325.322 3.208 6.225 12.169 6.233 15.388.009 57.16-110.317 154.854-184.291 172.959-290.569C456.331 108.387 374.776 3.866 263.278.107zm-6.355 279.666c-53.113 0-96.171-43.059-96.171-96.171s43.059-96.171 96.171-96.171c53.113 0 96.172 43.059 96.172 96.171s-43.059 96.171-96.172 96.171z"/></symbol><use xlink:href="#sprite-google-place" y="2320.182" width="513.597" height="513.597"/><view id="sprite-google-place-fragment" viewBox="0 2320.182 513.597 513.597"/><symbol id="sprite-google" viewBox="0 0 512 512"><title>google</title><path d="M512 256c0-16.084-1.509-32.183-4.497-47.813-1.348-7.075-7.544-12.188-14.736-12.188H257c-8.291 0-15 6.709-15 15v90c0 8.291 6.709 15 15 15h120.967c-7.537 15.258-17.924 28.497-30.121 39.635l84.78 84.78C481.407 393.939 512 328.539 512 256zM256 120c29.429 0 57.422 9.346 80.947 27.041 5.947 4.468 14.341 3.926 19.614-1.392l64.014-64.014c2.974-2.974 4.57-7.061 4.38-11.265s-2.124-8.13-5.347-10.84C373.803 21.138 315.692 0 256 0 168.151 0 90.542 44.654 44.663 112.452l88.048 88.048C153.717 153.184 200.979 120 256 120zm0 392c57.263 0 109.993-19.2 152.602-51.187l-86.371-86.371C302.489 385.558 279.925 392 256 392c-55.021 0-102.283-33.184-123.289-80.5l-88.048 88.048C90.542 467.346 168.151 512 256 512zM122.184 277.605C121.035 270.526 120 263.397 120 256s1.035-14.526 2.184-21.605L28.06 140.271C10.252 175.051 0 214.316 0 256s10.252 80.949 28.061 115.728z"/></symbol><use xlink:href="#sprite-google" y="2833.779" width="512" height="512"/><view id="sprite-google-fragment" viewBox="0 2833.779 512 512"/><symbol id="sprite-instagram" viewBox="0 0 16 16"><title>instagram</title><path d="M7.998 3.895A4.099 4.099 0 003.893 8a4.099 4.099 0 004.105 4.105A4.099 4.099 0 0012.102 8a4.099 4.099 0 00-4.104-4.105zm0 6.773A2.673 2.673 0 015.33 8a2.673 2.673 0 012.668-2.668A2.673 2.673 0 0110.666 8a2.673 2.673 0 01-2.668 2.668zM12.27 2.77a.957.957 0 100 1.918.956.956 0 00.886-1.326.958.958 0 00-.886-.592zM15.999 8c0-1.105.01-2.2-.052-3.302-.062-1.281-.354-2.418-1.29-3.355-.94-.938-2.074-1.228-3.355-1.29C10.197-.01 9.102 0 8 0 6.895 0 5.8-.01 4.698.053 3.417.115 2.28.407 1.343 1.343.405 2.284.115 3.417.053 4.699-.01 5.803 0 6.898 0 8c0 1.103-.01 2.2.052 3.302.062 1.281.354 2.418 1.29 3.354.94.94 2.074 1.23 3.355 1.291C5.802 16.01 6.898 16 8 16c1.105 0 2.2.01 3.302-.052 1.28-.062 2.418-.354 3.354-1.29.939-.94 1.229-2.074 1.291-3.355C16.011 10.2 16 9.105 16 8zm-1.761 4.72a2.545 2.545 0 01-.604.916 2.56 2.56 0 01-.917.604c-1.053.418-3.552.324-4.72.324-1.166 0-3.668.095-4.72-.322a2.543 2.543 0 01-.917-.604 2.56 2.56 0 01-.604-.917C1.339 11.666 1.434 9.167 1.434 8c0-1.167-.095-3.668.322-4.721.146-.364.322-.637.604-.917s.553-.458.917-.604c1.052-.417 3.554-.322 4.72-.322 1.168 0 3.67-.095 4.722.322.364.146.636.322.917.604.282.282.458.553.604.917.416 1.053.322 3.554.322 4.721 0 1.167.094 3.666-.324 4.72z"/></symbol><use xlink:href="#sprite-instagram" y="3345.779" width="16" height="16"/><view id="sprite-instagram-fragment" viewBox="0 3345.779 16 16"/><symbol id="sprite-key" viewBox="0 0 512 512"><title>key</title><path d="M463.748 48.251c-64.336-64.336-169.013-64.335-233.349.001-43.945 43.945-59.209 108.706-40.181 167.461L4.396 401.536a14.988 14.988 0 00-4.395 10.606V497c0 8.291 6.709 15 15 15h84.858c3.984 0 7.793-1.582 10.605-4.395l21.211-21.226a15.002 15.002 0 004.292-12.334l-2.637-22.793 31.582-2.974a14.975 14.975 0 0013.521-13.521l2.974-31.582 22.793 2.651c4.233.571 8.496-.85 11.704-3.691a15.04 15.04 0 005.024-11.206V363h27.422c3.984 0 7.793-1.582 10.605-4.395l38.467-37.958c58.74 19.043 122.381 4.929 166.326-39.046 64.336-64.335 64.336-169.014 0-233.35zm-42.435 106.07c-17.549 17.549-46.084 17.549-63.633 0s-17.549-46.084 0-63.633 46.084-17.549 63.633 0 17.548 46.084 0 63.633z"/></symbol><use xlink:href="#sprite-key" y="3361.779" width="512" height="512"/><view id="sprite-key-fragment" viewBox="0 3361.779 512 512"/><symbol id="sprite-line" viewBox="0 0 23 22"><title>line</title><path d="M.504.189h22.311v5.817H.504zm0 7.685h22.311v5.817H.504zm0 7.684h22.311v5.817H.504z"/></symbol><use xlink:href="#sprite-line" y="3873.779" width="23" height="22"/><view id="sprite-line-fragment" viewBox="0 3873.779 23 22"/><symbol id="sprite-ok" viewBox="0 0 19 32"><title>ok</title><path d="M9.5 0C4.833 0 1.035 3.705 1.035 8.259s3.798 8.257 8.467 8.257c4.668 0 8.464-3.703 8.464-8.257S14.169 0 9.5 0zm0 4.839c1.933 0 3.504 1.535 3.504 3.42 0 1.884-1.571 3.418-3.503 3.418-1.933 0-3.506-1.534-3.506-3.418 0-1.885 1.573-3.42 3.506-3.42zM2.52 16.797A2.492 2.492 0 00.383 17.93c-.73 1.132-.38 2.625.776 3.337a16.109 16.109 0 004.915 1.985L1.342 27.87a2.378 2.378 0 00.001 3.422A2.508 2.508 0 003.097 32a2.5 2.5 0 001.753-.709l4.65-4.537 4.652 4.537a2.522 2.522 0 003.506 0 2.376 2.376 0 000-3.421l-4.733-4.617a16.078 16.078 0 004.915-1.986c1.16-.712 1.51-2.207.78-3.337-.73-1.132-2.261-1.473-3.421-.76-3.466 2.127-7.932 2.126-11.397 0a2.513 2.513 0 00-1.28-.373z"/></symbol><use xlink:href="#sprite-ok" y="3895.779" width="19" height="32"/><view id="sprite-ok-fragment" viewBox="0 3895.779 19 32"/><symbol id="sprite-smartphone" viewBox="0 0 12 18"><title>smartphone</title><path d="M11.322 12.58a.678.678 0 00.678-.678V3.356A2.715 2.715 0 009.288.644H2.712A2.715 2.715 0 000 3.356v11.932A2.715 2.715 0 002.712 18h6.576A2.715 2.715 0 0012 15.288a.678.678 0 00-1.356 0c0 .748-.608 1.356-1.356 1.356H2.712a1.358 1.358 0 01-1.356-1.356V3.356C1.356 2.608 1.964 2 2.712 2h6.576c.748 0 1.356.608 1.356 1.356v8.546c0 .375.304.678.678.678z"/><path d="M6 15.597a.678.678 0 100-1.356.678.678 0 000 1.356zM7.356 3.733a.678.678 0 00-.678-.678H5.322a.678.678 0 100 1.356h1.356a.678.678 0 00.678-.678z"/></symbol><use xlink:href="#sprite-smartphone" y="3927.779" width="12" height="18"/><view id="sprite-smartphone-fragment" viewBox="0 3927.779 12 18"/><symbol id="sprite-twitter" viewBox="0 0 512 512"><title>twitter</title><path d="M512 97.248c-19.04 8.352-39.328 13.888-60.48 16.576 21.76-12.992 38.368-33.408 46.176-58.016-20.288 12.096-42.688 20.64-66.56 25.408C411.872 60.704 384.416 48 354.464 48c-58.112 0-104.896 47.168-104.896 104.992 0 8.32.704 16.32 2.432 23.936-87.264-4.256-164.48-46.08-216.352-109.792-9.056 15.712-14.368 33.696-14.368 53.056 0 36.352 18.72 68.576 46.624 87.232-16.864-.32-33.408-5.216-47.424-12.928v1.152c0 51.008 36.384 93.376 84.096 103.136-8.544 2.336-17.856 3.456-27.52 3.456-6.72 0-13.504-.384-19.872-1.792 13.6 41.568 52.192 72.128 98.08 73.12-35.712 27.936-81.056 44.768-130.144 44.768-8.608 0-16.864-.384-25.12-1.44C46.496 446.88 101.6 464 161.024 464c193.152 0 298.752-160 298.752-298.688 0-4.64-.16-9.12-.384-13.568 20.832-14.784 38.336-33.248 52.608-54.496z"/></symbol><use xlink:href="#sprite-twitter" y="3945.779" width="512" height="512"/><view id="sprite-twitter-fragment" viewBox="0 3945.779 512 512"/><symbol id="sprite-user" viewBox="0 0 350 350"><title>user</title><path d="M175 171.173c38.914 0 70.463-38.318 70.463-85.586C245.463 38.318 235.105 0 175 0s-70.465 38.318-70.465 85.587c0 47.268 31.549 85.586 70.465 85.586zM41.909 301.853c-.012-2.882-.024-.812 0 0zm266.176 2.251c.038-.789.013-5.474 0 0z"/><path d="M307.935 298.397c-1.305-82.342-12.059-105.805-94.352-120.657 0 0-11.584 14.761-38.584 14.761s-38.586-14.761-38.586-14.761C55.018 192.43 43.61 215.545 42.11 295.722c-.123 6.547-.18 6.891-.202 6.131.005 1.424.011 4.058.011 8.651 0 0 19.592 39.496 133.08 39.496 113.486 0 133.08-39.496 133.08-39.496 0-2.951.002-5.003.005-6.399-.022.47-.066-.441-.149-5.708z"/></symbol><use xlink:href="#sprite-user" y="4457.779" width="350" height="350"/><view id="sprite-user-fragment" viewBox="0 4457.779 350 350"/><symbol id="sprite-video" viewBox="0 0 17 11"><title>video</title><path d="M13.032 4.231V1.22a.863.863 0 00-.86-.86H1.846a.863.863 0 00-.86.86v8.604c0 .473.386.86.86.86H12.17c.474 0 .86-.387.86-.86V6.813l3.442 3.441V.79l-3.44 3.44z"/></symbol><use xlink:href="#sprite-video" y="4807.779" width="17" height="11"/><view id="sprite-video-fragment" viewBox="0 4807.779 17 11"/><symbol id="sprite-vk" viewBox="0 0 20 11"><title>vk</title><path fill-rule="evenodd" clip-rule="evenodd" d="M9.815 10.93h1.213s.364-.057.546-.232c.181-.174.181-.523.181-.523s0-1.512.728-1.744c.728-.233 1.698 1.511 2.668 2.151.727.523 1.273.407 1.273.407l2.668-.058s1.394-.058.727-1.163c-.06-.058-.363-.756-2-2.21-1.698-1.511-1.456-1.22.545-3.837 1.213-1.57 1.698-2.5 1.577-2.965-.122-.407-1.031-.29-1.031-.29h-3.032s-.242-.059-.363.057c-.182.117-.243.291-.243.291s-.485 1.221-1.091 2.268c-1.334 2.15-1.88 2.267-2.062 2.15-.485-.29-.364-1.278-.364-1.918 0-2.093.364-2.965-.666-3.198C10.786.058 10.543 0 9.694 0c-1.091 0-2 0-2.486.233-.364.174-.606.523-.424.523s.667.116.91.407c.242.523.242 1.395.242 1.395s.182 2.5-.425 2.791c-.424.233-.97-.232-2.182-2.21C4.722 2.152 4.237.99 4.237.99s-.06-.233-.242-.35C3.813.524 3.51.466 3.51.466H.66S.236.465.054.64c-.121.174 0 .465 0 .465s2.243 5 4.79 7.558c2.364 2.442 4.971 2.268 4.971 2.268z"/></symbol><use xlink:href="#sprite-vk" y="4818.779" width="20" height="11"/><view id="sprite-vk-fragment" viewBox="0 4818.779 20 11"/><symbol id="sprite-yt" viewBox="0 0 36 26"><title>yt</title><path d="M35.268 4.088a4.686 4.686 0 00-1.162-2.074A4.478 4.478 0 0032.098.81C29.282.013 18.013 0 18.013 0S6.744-.013 3.926.75c-.76.223-1.45.643-2.007 1.22A4.786 4.786 0 00.75 4.05C.007 6.955 0 12.98 0 12.98s-.007 6.057.73 8.933c.414 1.59 1.628 2.846 3.171 3.275 2.846.798 14.084.811 14.084.811s11.27.013 14.086-.748a4.495 4.495 0 002.01-1.2 4.703 4.703 0 001.169-2.071c.744-2.904.75-8.929.75-8.929s.036-6.058-.732-8.964zm-20.86 14.477l.009-11.134 9.366 5.576-9.375 5.558z"/></symbol><use xlink:href="#sprite-yt" y="4829.779" width="36" height="26"/><view id="sprite-yt-fragment" viewBox="0 4829.779 36 26"/><symbol id="sprite-zoom" viewBox="0 0 21 21"><title>zoom</title><path d="M20.446 18.91l-4.557-4.557a8.418 8.418 0 001.687-5.065c0-4.666-3.796-8.462-8.462-8.462S.652 4.622.652 9.288s3.796 8.462 8.462 8.462a8.419 8.419 0 005.065-1.688l4.557 4.557a1.21 1.21 0 001.71-1.71zM3.07 9.288a6.044 6.044 0 116.044 6.044A6.052 6.052 0 013.07 9.288z"/></symbol><use xlink:href="#sprite-zoom" y="4855.779" width="21" height="21"/><view id="sprite-zoom-fragment" viewBox="0 4855.779 21 21"/></svg>