<svg viewBox="0 0 13 19" xmlns="http://www.w3.org/2000/svg">
<path d="M11.8235 11.9069C12.3687 10.9946 12.7304 9.84078 12.8006 8.69909C12.8451 7.9663 12.6818 7.19707 12.3283 6.47373C11.7736 5.33743 10.8208 4.69911 9.90047 4.08238C9.21356 3.62219 8.56444 3.18764 8.10561 2.56686L8.02329 2.4562C7.75203 2.09183 7.44569 1.67888 7.39711 1.33205C7.34853 0.981177 7.03004 0.731515 6.68186 0.751758C6.32829 0.776049 6.05434 1.0689 6.05434 1.42382V13.4481C5.48889 13.1053 4.79253 12.8947 4.03005 12.8947C2.17041 12.8947 0.65625 14.1053 0.65625 15.5938C0.65625 17.0823 2.17041 18.2928 4.03005 18.2928C5.88969 18.2928 7.40386 17.0823 7.40386 15.5938V7.72878C8.41735 8.11609 10.0759 9.1026 10.532 11.4062C10.447 11.5317 10.3661 11.6667 10.2716 11.7746C10.0246 12.054 10.0516 12.4804 10.3323 12.7261C10.6103 12.9744 11.0368 12.9447 11.2837 12.6653C11.4646 12.4602 11.6252 12.22 11.779 11.969C11.7952 11.9501 11.8101 11.9298 11.8235 11.9069Z" />
</svg>
