<svg viewBox="0 0 12 18" xmlns="http://www.w3.org/2000/svg">
<path d="M11.322 12.5804C11.6965 12.5804 12 12.2769 12 11.9024V3.35594C12 1.86062 10.7835 0.644073 9.28814 0.644073H2.71186C1.21654 0.644073 0 1.86062 0 3.35594V15.2881C0 16.7835 1.21654 18 2.71186 18H9.28814C10.7835 18 12 16.7835 12 15.2881C12 14.9137 11.6965 14.6102 11.322 14.6102C10.9476 14.6102 10.6441 14.9137 10.6441 15.2881C10.6441 16.0358 10.0358 16.6441 9.28814 16.6441H2.71186C1.9642 16.6441 1.35593 16.0358 1.35593 15.2881V3.35594C1.35593 2.60828 1.9642 2.00001 2.71186 2.00001H9.28814C10.0358 2.00001 10.6441 2.60828 10.6441 3.35594V11.9024C10.6441 12.2769 10.9476 12.5804 11.322 12.5804Z" />
<path d="M6.00023 15.5974C6.37466 15.5974 6.6782 15.2938 6.6782 14.9194C6.6782 14.545 6.37466 14.2414 6.00023 14.2414C5.6258 14.2414 5.32227 14.545 5.32227 14.9194C5.32227 15.2938 5.6258 15.5974 6.00023 15.5974Z" />
<path d="M7.3564 3.73294C7.3564 3.3585 7.05287 3.05498 6.67843 3.05498H5.3225C4.94806 3.05498 4.64453 3.3585 4.64453 3.73294C4.64453 4.10738 4.94806 4.41091 5.3225 4.41091H6.67843C7.05287 4.41091 7.3564 4.10735 7.3564 3.73294Z"/>
</svg>
