<svg viewBox="0 0 21 21" xmlns="http://www.w3.org/2000/svg">
<path d="M20.4457 18.9096L15.8888 14.3527C16.9859 12.8922 17.5781 11.1144 17.5761 9.28777C17.5761 4.62191 13.7801 0.825882 9.11423 0.825882C4.44838 0.825882 0.652344 4.62191 0.652344 9.28777C0.652344 13.9536 4.44838 17.7497 9.11423 17.7497C10.9409 17.7516 12.7186 17.1594 14.1792 16.0623L18.736 20.6192C18.9667 20.8254 19.2676 20.9355 19.5768 20.9268C19.8861 20.9182 20.1803 20.7914 20.3991 20.5727C20.6179 20.3539 20.7446 20.0597 20.7533 19.7504C20.7619 19.4411 20.6519 19.1402 20.4457 18.9096ZM3.07003 9.28777C3.07003 8.09234 3.42451 6.92375 4.08866 5.92979C4.7528 4.93582 5.69678 4.16112 6.80121 3.70365C7.90565 3.24618 9.12093 3.12648 10.2934 3.3597C11.4659 3.59292 12.5428 4.16857 13.3881 5.01387C14.2334 5.85917 14.8091 6.93614 15.0423 8.1086C15.2755 9.28106 15.1558 10.4964 14.6983 11.6008C14.2409 12.7052 13.4662 13.6492 12.4722 14.3133C11.4782 14.9775 10.3097 15.332 9.11423 15.332C7.5118 15.33 5.97555 14.6926 4.84246 13.5595C3.70936 12.4265 3.07195 10.8902 3.07003 9.28777Z"/>
</svg>
