<svg viewBox="0 0 19 32" xmlns="http://www.w3.org/2000/svg">
<path d="M9.5007 0C4.83221 0 1.03444 3.70467 1.03444 8.25901C1.03444 12.813 4.83221 16.516 9.5007 16.516C14.169 16.516 17.9649 12.813 17.9649 8.25901C17.9649 3.70467 14.1691 0 9.5007 0ZM9.5007 4.83901C11.4329 4.83901 13.0041 6.37395 13.0041 8.25901C13.0041 10.1433 11.4329 11.677 9.5007 11.677C7.56815 11.677 5.9953 10.1433 5.9953 8.25901C5.9953 6.37395 7.56815 4.83901 9.5007 4.83901ZM2.52066 16.797C1.68304 16.7843 0.859356 17.1871 0.381539 17.93C-0.348667 19.0617 0.00113508 20.5551 1.15848 21.267C2.68935 22.204 4.35052 22.8688 6.07323 23.252L1.34196 27.87C0.373405 28.8154 0.374225 30.3466 1.34298 31.292C1.82854 31.7638 2.46182 32 3.09671 32C3.73095 32 4.36637 31.7635 4.85045 31.291L9.4987 26.754L14.1511 31.291C15.1188 32.2362 16.688 32.2362 17.6575 31.291C18.6265 30.3462 18.6265 28.8134 17.6575 27.87L12.9241 23.253C14.6473 22.8698 16.3091 22.2047 17.8389 21.267C18.9985 20.5552 19.3489 19.0601 18.6189 17.93C17.8881 16.798 16.358 16.457 15.1975 17.17C11.7316 19.297 7.26571 19.2956 3.80084 17.17C3.40201 16.9249 2.95942 16.8037 2.52066 16.797V16.797Z" />
</svg>
