<svg viewBox="0 0 20 11" xmlns="http://www.w3.org/2000/svg">
<path fill-rule="evenodd" clip-rule="evenodd" d="M9.81537 10.9308H11.028C11.028 10.9308 11.3918 10.8727 11.5736 10.6983C11.7555 10.5238 11.7555 10.175 11.7555 10.175C11.7555 10.175 11.7555 8.66328 12.4831 8.43071C13.2107 8.19814 14.1807 9.94242 15.1508 10.582C15.8784 11.1053 16.4241 10.989 16.4241 10.989L19.0918 10.9308C19.0918 10.9308 20.4863 10.8727 19.8194 9.76799C19.7587 9.70985 19.4556 9.01214 17.8186 7.55857C16.1209 6.04685 16.3634 6.33757 18.3642 3.72114C19.5768 2.15128 20.0619 1.221 19.9406 0.755856C19.8194 0.348856 18.9099 0.465142 18.9099 0.465142H15.8784C15.8784 0.465142 15.6359 0.406999 15.5146 0.523285C15.3327 0.639571 15.2721 0.813999 15.2721 0.813999C15.2721 0.813999 14.787 2.035 14.1807 3.08157C12.8469 5.23285 12.3012 5.34914 12.1193 5.23285C11.6343 4.94214 11.7555 3.95371 11.7555 3.31414C11.7555 1.221 12.1193 0.348856 11.0886 0.116285C10.7855 0.0581421 10.5429 0 9.69411 0C8.60276 0 7.69331 -2.25263e-07 7.20826 0.232571C6.84448 0.406999 6.60196 0.755856 6.78385 0.755856C6.96574 0.755856 7.45079 0.872142 7.69331 1.16286C7.93583 1.68614 7.93583 2.55828 7.93583 2.55828C7.93583 2.55828 8.11772 5.05842 7.51142 5.34914C7.087 5.58171 6.54133 5.11657 5.32873 3.13971C4.72242 2.15128 4.23738 0.988427 4.23738 0.988427C4.23738 0.988427 4.17675 0.755857 3.99486 0.639571C3.81297 0.523286 3.50982 0.465142 3.50982 0.465142H0.660196C0.660196 0.465142 0.235784 0.465143 0.0538936 0.639571C-0.067367 0.814 0.0538936 1.10471 0.0538936 1.10471C0.0538936 1.10471 2.29721 6.10499 4.84368 8.66328C7.20827 11.1053 9.81537 10.9308 9.81537 10.9308Z"/>
</svg>
