<svg viewBox="0 0 36 26" xmlns="http://www.w3.org/2000/svg">
<path d="M35.2677 4.08779C35.0628 3.30364 34.6624 2.58851 34.1063 2.0136C33.5503 1.43868 32.858 1.02402 32.0983 0.810889C29.2815 0.0130026 18.0125 1.40957e-05 18.0125 1.40957e-05C18.0125 1.40957e-05 6.74523 -0.0129751 3.92663 0.749656C3.16743 0.972594 2.47653 1.39312 1.92026 1.97086C1.364 2.5486 0.961037 3.26415 0.750072 4.04883C0.00719787 6.95462 2.6354e-06 12.9814 2.6354e-06 12.9814C2.6354e-06 12.9814 -0.00719224 19.038 0.730286 21.9141C1.14399 23.5043 2.35813 24.7605 3.90144 25.1891C6.74703 25.987 17.9855 26 17.9855 26C17.9855 26 29.2545 26.013 32.0713 25.2522C32.8313 25.0394 33.5242 24.6257 34.0817 24.052C34.6391 23.4783 35.0417 22.7643 35.2497 21.9809C35.9943 19.0769 35.9997 13.052 35.9997 13.052C35.9997 13.052 36.0357 6.99358 35.2677 4.08779ZM14.4078 18.5648L14.4168 7.43149L23.7828 13.0074L14.4078 18.5648Z" />
</svg>
